<?xml version="1.0" standalone="no"?>
<!DOCTYPE svg PUBLIC "-//W3C//DTD SVG 20010904//EN"
 "http://www.w3.org/TR/2001/REC-SVG-20010904/DTD/svg10.dtd">
<svg version="1.0" xmlns="http://www.w3.org/2000/svg"
 width="1200.000000pt" height="800.000000pt" viewBox="0 0 1200.000000 800.000000"
 preserveAspectRatio="xMidYMid meet">

<g transform="translate(0.000000,800.000000) scale(0.100000,-0.100000)"
fill="#000000" stroke="none">
<path d="M3000 4000 l0 -4000 4500 0 4500 0 0 4000 0 4000 -4500 0 -4500 0 0
-4000z m3688 2218 c-420 -356 -684 -851 -758 -1418 -15 -107 -14 -404 0 -512
76 -578 343 -1068 783 -1437 231 -193 547 -355 839 -430 223 -57 292 -65 563
-66 218 0 265 3 370 23 438 82 817 269 1118 551 42 40 77 70 77 67 0 -13 -74
-153 -128 -240 -199 -325 -489 -615 -812 -812 -258 -157 -573 -271 -890 -320
-162 -26 -538 -26 -700 0 -1056 166 -1861 971 -2027 2026 -25 162 -25 538 0
700 80 505 302 954 656 1323 234 243 535 441 871 573 47 18 91 33 98 34 7 0
-20 -28 -60 -62z m2082 -853 c19 12 513 225 516 223 2 -3 -228 -403 -278 -484
-4 -6 76 -105 182 -224 104 -118 188 -215 187 -217 -2 -1 -128 25 -281 58
-152 34 -278 60 -280 58 -1 -2 -62 -107 -136 -234 -137 -236 -160 -272 -160
-245 0 20 -52 554 -55 558 -1 1 -125 29 -275 62 -150 33 -275 62 -278 65 -3 3
10 11 29 19 135 57 475 208 482 215 4 4 -4 120 -18 257 -14 137 -25 264 -25
282 0 31 12 20 191 -182 106 -119 195 -214 199 -211z"/>
</g>
</svg>
